<?xml version="1.0" standalone="no"?>
<!DOCTYPE svg PUBLIC "-//W3C//DTD SVG 20010904//EN"
 "http://www.w3.org/TR/2001/REC-SVG-20010904/DTD/svg10.dtd">
<svg version="1.0" xmlns="http://www.w3.org/2000/svg"
 width="260.000000pt" height="260.000000pt" viewBox="0 0 260.000000 260.000000"
 preserveAspectRatio="xMidYMid meet">
<metadata>
Created by potrace 1.11, written by Peter Selinger 2001-2013
</metadata>
<g transform="translate(0.000000,260.000000) scale(0.100000,-0.100000)"
fill="#000000" stroke="none">
<path d="M1586 2568 c-2 -7 -16 -74 -31 -148 -35 -180 -57 -269 -108 -435 -12
-38 -22 -72 -22 -75 -7 -35 -109 -320 -153 -430 -38 -96 -95 -223 -147 -328
-23 -45 -38 -82 -34 -82 10 0 149 149 195 210 58 77 147 315 273 732 11 37 34
132 51 210 18 79 34 149 36 156 4 15 44 -3 117 -54 26 -19 49 -34 51 -34 2 0
14 30 26 66 l22 66 -28 24 c-36 28 -156 98 -207 119 -29 12 -38 13 -41 3z"/>
<path d="M1951 2493 c-119 -426 -382 -969 -624 -1286 -101 -133 -187 -219
-295 -293 -13 -9 134 -331 216 -474 87 -151 227 -340 252 -340 21 0 136 88
211 162 274 268 558 670 732 1037 66 140 139 348 141 401 2 110 -190 430 -392
649 -79 87 -198 191 -217 191 -6 0 -17 -21 -24 -47z"/>
<path d="M1248 2522 c-13 -2 -18 -14 -19 -40 -1 -108 -8 -266 -13 -332 -9
-111 -17 -183 -21 -205 -2 -11 -4 -23 -4 -27 -1 -3 -191 -7 -423 -7 -233 0
-433 0 -445 0 -14 -1 -22 -7 -21 -18 0 -10 -3 -41 -7 -68 l-7 -50 446 0 446 0
-5 -25 c-2 -14 -7 -45 -10 -70 -7 -58 -42 -270 -56 -335 -20 -99 -20 -103 3
-60 51 96 136 313 143 370 4 33 9 69 10 80 2 11 5 41 8 65 4 25 9 72 12 105 4
33 8 76 10 95 4 32 13 161 20 285 2 28 3 58 4 68 1 16 9 18 54 16 28 -1 64 -6
79 -10 26 -7 27 -6 42 61 9 38 16 73 16 78 0 6 -17 13 -37 17 -42 8 -198 13
-225 7z"/>
<path d="M29 1640 c0 -3 -2 -14 -4 -25 -17 -92 -16 -105 2 -106 98 -3 706 1
710 5 5 5 13 56 17 111 1 20 -6 20 -361 20 -200 1 -363 -2 -364 -5z"/>
<path d="M574 1309 c-2 -4 -7 -31 -10 -61 -3 -29 -8 -56 -11 -60 -2 -5 93 -8
211 -8 199 0 216 1 216 18 0 9 3 40 6 68 l6 52 -207 -1 c-113 0 -208 -4 -211
-8z"/>
<path d="M69 1008 c0 -13 -3 -44 -5 -70 l-5 -47 365 0 c274 0 366 3 366 12 1
7 3 38 7 70 l5 57 -366 0 -366 0 -1 -22z"/>
<path d="M933 831 c-18 -25 -51 -65 -74 -89 l-42 -43 24 -51 c28 -61 156 -258
223 -343 63 -81 191 -211 243 -247 34 -23 47 -27 62 -19 29 16 34 41 13 65
-11 12 -43 55 -71 96 -29 41 -71 95 -94 120 -61 64 -145 172 -206 263 l-53 77
30 46 c30 45 30 45 15 92 -28 83 -34 86 -70 33z"/>
<path d="M825 403 c-16 -32 -31 -61 -33 -65 -4 -9 94 -107 158 -159 56 -45
171 -119 230 -149 l45 -22 -66 68 c-36 38 -76 80 -88 94 -31 34 -164 217 -187
258 -10 17 -21 32 -24 32 -3 0 -19 -26 -35 -57z"/>
</g>
</svg>
